<svg width="13" height="10" viewBox="0 0 13 10" fill="none" xmlns="http://www.w3.org/2000/svg">
<path d="M7.44 9.496V5.752C7.44 4.024 7.84533 2.744 8.656 1.912C9.46667 1.05866 10.704 0.567998 12.368 0.439999L12.784 2.104C10.9493 2.424 10.032 3.32 10.032 4.792V5.08H11.696V9.496H7.44ZM0.016 9.496V5.752C0.016 4.024 0.421333 2.744 1.232 1.912C2.04267 1.05866 3.28 0.567998 4.944 0.439999L5.36 2.104C3.52533 2.424 2.608 3.29867 2.608 4.728C2.608 4.77067 2.608 4.83467 2.608 4.92C2.62933 4.984 2.64 5.03733 2.64 5.08H4.272V9.496H0.016Z" fill="#303030"/>
</svg>
